<?xml version="1.0" encoding="utf-8"?>
<!-- Generator: Adobe Illustrator 19.1.0, SVG Export Plug-In . SVG Version: 6.00 Build 0)  -->
<svg version="1.1" xmlns="http://www.w3.org/2000/svg" xmlns:xlink="http://www.w3.org/1999/xlink" x="0px" y="0px"
	 viewBox="0 0 635.5 127" style="enable-background:new 0 0 635.5 127;" xml:space="preserve">
<style type="text/css">
	.st2{fill:#FFFFFF;}
	.st3{fill:#009286;}
	.st4{fill:#FC6621;}
	.st5{fill:#80C8C2;}
</style>

<g id="Laag_2">
	<circle class="st3" cx="154" cy="63.5" r="63.5"/>
	<g>
		<path class="st2" d="M171.8,119.8c0.1,0,0.1,0,0.2,0c0.1,0,0.1,0,0.2,0H171.8z"/>
		<path class="st2" d="M173.7,38.7h-44.3l-2.1-5.6h-11.7v7.1h6.8l6.9,22.1l-0.4-1.6l3.8,12.7c0.3,1.1,0.5,2.3,1.6,2.3
			c0.2,0,0.3,0.1,0.4,0.1h42.1v-6.6h-38.1l-1.1-2.7l36.4-9.2c1.6,0,3-1.4,3-3V43.6C176.7,42,175.3,38.7,173.7,38.7z"/>
		<path class="st2" d="M143.5,119.8c0.1,0,0.1,0,0.2,0c0.1,0,0.1,0,0.2,0H143.5z"/>
		<path class="st2" d="M141.6,80.1c-1.6,0-3.4,0.4-4.7,1.2c-2.8,1.6-4.5,4.4-4.5,7.7c0,1.6,0.4,3.1,1.2,4.5c1.6,2.8,4.6,4.6,7.8,4.6
			c1.6,0,3-0.4,4.3-1.2c2.6-1.6,4.3-4.6,4.3-7.8c0-1.6-0.4-3.2-1.1-4.5C147.5,81.8,144.7,80.1,141.6,80.1z"/>
		<path class="st2" d="M167.6,80.1c-1.6,0-3.4,0.4-4.7,1.2c-2.8,1.6-4.5,4.4-4.5,7.7c0,1.6,0.4,3.1,1.2,4.5c1.6,2.8,4.6,4.6,7.8,4.6
			c1.6,0,3-0.4,4.3-1.2c2.6-1.6,4.3-4.6,4.3-7.8c0-1.6-0.4-3.2-1.1-4.5C173.5,81.8,170.6,80.1,167.6,80.1z"/>
	</g>
	<circle class="st4" cx="490" cy="63.5" r="63.5"/>
	<g>
		<polygon class="st2" points="466.9,98.9 485.8,98.9 485.8,74.5 495.8,74.5 495.8,98.9 514.8,98.9 514.8,67.7 466.9,67.7 		"/>
		<path class="st2" d="M513,54V40.3c0-0.8-0.7-1.5-1.5-1.5h-7.7c-0.8,0-1.5,0.7-1.5,1.5v3.1L490.8,32l-31.3,31.1l62.6,0L513,54z"/>
	</g>
	<circle class="st3" cx="323" cy="63.5" r="63.5"/>
	<path class="st5" d="M380.9,66h-58.4c0-34,0-60.4,0-60.4C355.5,5.6,380.9,32,380.9,66z"/>
	<path id="huis_x26_Tuin_2_" class="st2" d="M304.6,33.1c0.5,0,2.3,0.7,3.8,2.1l6.4,6.3l6.3-7.1c0.7-0.9,1.4-1.3,2.2-1.3
		c0.8,0,1.5,0.5,2.1,1.3l6.5,7.1l7.2-6.3c1.5-1.4,2.6-2.1,3.1-2.1c0.9,0,1.3,1.4,1.3,4.2v18c0,5.3-4.4,11.6-9.6,13.5
		c-2.6,0.9-4.2,1.4-7.3,1.3V91c2.7-5.2,6.2-10.5,12.2-14.2c2.9-1.8,6-3,9.1-3.5c1-0.1,1.8-0.2,2.4-0.2c1.7,0,3.5,0.3,5.2,0.9
		l-0.7,1.4c-0.8,1.6-3.3,5.9-5.3,8.7c-2.6,3.6-6.8,7.8-10.6,10.4c-4.6,3.1-10.4,5-15.8,5c-4.5,0-9-1.2-12.8-3.2
		c-3.6-2-7-4.6-9.6-7.5c-4.7-5.1-8.3-11.1-9.6-14l-0.4-0.9c1.6-0.6,3.4-0.9,5.2-0.9c5.8,0,11.5,2.9,16,6.8c3.8,3.4,5.8,7.4,7.6,11
		V70.1c-6.1,0.2-10.3-1.7-13.4-5.7c-1.6-2-3.2-6.4-3.2-9.1v-18C303.3,34.5,303.8,33.1,304.6,33.1"/>
</g>
</svg>
