<?xml version="1.0" encoding="utf-8"?>
<!-- Generator: Adobe Illustrator 18.1.1, SVG Export Plug-In . SVG Version: 6.00 Build 0)  -->
<!DOCTYPE svg PUBLIC "-//W3C//DTD SVG 1.1//EN" "http://www.w3.org/Graphics/SVG/1.1/DTD/svg11.dtd">
<svg version="1.1" id="Lager_1" xmlns:sketch="http://www.bohemiancoding.com/sketch/ns"
	 xmlns="http://www.w3.org/2000/svg" xmlns:xlink="http://www.w3.org/1999/xlink" width="100px" height="100px"  viewBox="-464.5 438.5 143.5 125"
	 enable-background="new -464.5 438.5 143.5 125" xml:space="preserve">
<defs>
<linearGradient id="Polygon-1_1_" gradientUnits="userSpaceOnUse" x1="-887.3315" y1="997.9431" x2="-887.3252" y2="997.9431" gradientTransform="matrix(106.8306 0 0 -123.4237 94400.9297 123670.5703)">
	<stop  offset="0" style="stop-color:#D5343B"/>
	<stop  offset="1" style="stop-color:#E63F48"/>
</linearGradient>
</defs>
<title>Polygon 1</title>
<desc>Created with Sketch.</desc>
<g id="Page-1" sketch:type="MSPage">
	<g id="Feed-6" transform="translate(-266.000000, -9519.000000)" sketch:type="MSArtboardGroup">
		<g id="feed" transform="translate(8.000000, 717.000000)" sketch:type="MSLayerGroup">
			<g id="ID-koll" transform="translate(3.000000, 8682.000000)" sketch:type="MSShapeGroup">
				<g id="Icon" transform="translate(255.000000, 120.000000)">
					

					<path id="Polygon-1" fill="url(#Polygon-1_1_)" d="M-385.7,443.1l39.6,22.9c4.3,2.5,6.9,7,6.9,12v45.8c0,4.9-2.6,9.5-6.9,12
						l-39.6,22.9c-4.3,2.5-9.5,2.5-13.8,0l-39.6-22.9c-4.3-2.5-6.9-7-6.9-12v-45.8c0-4.9,2.6-9.5,6.9-12l39.6-22.9
						C-395.2,440.6-390,440.6-385.7,443.1z"/>
				</g>
			</g>
		</g>
	</g>
</g>
<circle fill="#E63F48" stroke="#FFFFFF" stroke-width="4.4186" stroke-miterlimit="10" cx="-339.7" cy="462.4" r="15.8"/>
<text  x="-339.7" y="468.4" text-anchor="middle" style="fill: #FFFFFF; font-family:proxima-semibold, ProximaNovaA-Semibold; font-size:{0}px;">{1}</text>
<text transform="matrix(1 0 0 1 -427.7092 523.1863)" style="fill: #FFFFFF; font-family:Tink Symbols; font-size:66px;">&#57603;</text>
</svg>
