<?xml version="1.0" encoding="utf-8"?>
<!-- Generator: Adobe Illustrator 18.1.1, SVG Export Plug-In . SVG Version: 6.00 Build 0)  -->
<svg version="1.1" id="Lager_1" xmlns="http://www.w3.org/2000/svg" xmlns:xlink="http://www.w3.org/1999/xlink" x="0px" y="0px"
     width="200px" height="80px" viewBox="0 590.9 595.3 251" enable-background="new 0 590.9 595.3 251" xml:space="preserve">
<g>
    <circle fill="#CCC6B9" cx="477" cy="717.6" r="111"/>
    <circle fill="#F1EEE7" cx="477.2" cy="718.5" r="100.3"/>
    <path fill="#CCC6B9" d="M573,681.2c0,0-15.6,8.5-54.2,14.4c-38.8,5.9-76.5,22.7-97.2,28.6c-23.9,7.1-24.2,1.8-45.3,10.4l-4.5-42.4
        l186.7-47.1L573,681.2z"/>
    <path fill="#CCE0AC" d="M477.6,615.6c-49.1,0-89.9,35.5-98.2,82.2l61.3-14.6c0,0,20.7-17.5,60.9-14.4c40.2,3.1,56-13.4,56-13.4
        C539.1,631.2,510,615.6,477.6,615.6z"/>
    <g>
        <path fill="#FFFFFF" d="M473.9,820.3l-19-77.9l-70.2,18l-0.3-0.8c-4.2-9.7-6-17.8-6-17.8l-0.2-1l57.9-13.8l14.5-4l-23.5-95.1
            l0.6-0.4c13.4-8.3,24.9-10,25.3-10.1l0.9-0.1l27,100.1l23.2-6.6l71.4-17.1l0.2,1c2.3,9.7,2.6,16.7,2.7,17v0.8l-29.2,6.7l6.3,31.3
            v0.2c-0.4,3-3.5,10.6-7,11.6l-52.6,15.1l11.2,38.3l-1,0.3c-15.3,4.1-28.5,4.3-31,4.3L473.9,820.3z M492.1,759.7l28.5-7.1l16.5-4.6
            l-5.3-24.7l-46.3,11.9L492.1,759.7z"/>
        <path fill="#CCC6B8" d="M453.2,618.5l27,100.2l24.2-6.9l70.4-16.8c2.3,9.7,2.6,16.8,2.6,16.8l-29.4,6.7l6.5,32.1
            c-0.4,3-3.5,9.9-6.3,10.8l-53.6,15.4l11.2,38.3c-15.2,4.1-28.4,4.3-30.7,4.3c-0.2,0-0.4,0-0.4,0l-19.1-78.1l-70.3,18.1
            c-4.2-9.7-5.9-17.7-5.9-17.7l57-13.6l15.4-4.3l-23.6-95.4C441.6,620.2,453.2,618.5,453.2,618.5 M491.4,760.9l29.4-7.3l17.5-4.9
            l-5.7-26.6l-48.3,12.4L491.4,760.9 M454.7,616.3l-1.8,0.3c-0.5,0.1-12.1,1.9-25.7,10.2l-1.2,0.8l0.3,1.4l23.1,93.4l-13.5,3.7
            L379,739.7l-1.9,0.5l0.4,1.9c0.1,0.3,1.8,8.3,6,18l0.7,1.6l1.7-0.4l68.4-17.6l18.6,76.1l0.4,1.5h1.5c0,0,0.1,0,0.4,0
            c2.5,0,15.8-0.2,31.2-4.4l2-0.5l-0.6-2L497.2,778l51.7-14.9c4.1-1.2,7.3-9.3,7.7-12.4v-0.3l-0.1-0.3l-6.1-30.2l27.5-6.3l1.6-0.4
            l-0.1-1.7c0-0.3-0.4-7.4-2.7-17.2l-0.5-2l-2,0.5l-70.4,16.8l0,0l0,0l-22.2,6.3l-26.5-98.2L454.7,616.3L454.7,616.3z M486.7,736
            l44.3-11.4l4.9,22.7l-15.6,4.4l-27.5,6.8L486.7,736L486.7,736z"/>
    </g>
    <g>
        <path fill="#129CD8" d="M476.3,660.5c-22.9,0-41.6,19.7-41.6,43.8c0,34.3,37.8,71,38.2,71.4c2.6,2.4,3.5,2.4,3.5,2.4s1,0,3.5-2.4
            c0.4-0.4,38.6-37.1,38.6-71.4C518.4,680.1,499.5,660.5,476.3,660.5z"/>
        <path fill="#FFFFFF" d="M476.3,780.2c-0.7,0-1.9-0.3-4.8-3l-0.1-0.1c-1.7-1.7-10.8-10.8-19.8-23.8c-12.6-18-18.9-34.6-18.9-49.1
            c0-25.3,19.6-45.8,43.6-45.8c24.3,0,44,20.6,44,45.8c0,33.6-35.1,68.9-39.1,72.8C478.7,779.7,477.2,780.2,476.3,780.2z
             M476.3,662.5c-21.8,0-39.6,18.8-39.6,41.8c0,32.7,36,68.5,37.5,70c1.1,1,1.7,1.5,2.1,1.7c0.4-0.2,1-0.7,2-1.7
            c1.8-1.7,10.8-10.7,19.7-23.4c12-17.1,18.3-33.2,18.3-46.7C516.4,681.2,498.4,662.5,476.3,662.5z"/>
    </g>
    <circle fill="#FFFFFF" cx="477.4" cy="700.8" r="18.9"/>
</g>
<g>
    <g>
        <path fill="#E5E5E4" d="M122.8,828.7L122.8,828.7c-4.3,0-8.3-0.2-12.4-0.6l0.8-8.1c3.9,0.4,7.5,0.6,11.4,0.6L122.8,828.7z
             M135.2,827.8l-0.8-8.1c3.9-0.4,7.7-1,11.4-2l1.8,7.9C143.5,826.6,139.2,827.4,135.2,827.8z M98,825.8c-4.1-0.8-8.1-2-12-3.5
            l2.6-7.7c3.7,1.2,7.3,2.2,11.2,3.2L98,825.8z M159.3,822.4l-2.6-7.7c3.7-1.2,7.1-2.8,10.6-4.5l3.5,7.3
            C167.2,819.3,163.4,820.9,159.3,822.4z M74.7,817.7c-3.7-1.8-7.3-3.9-11-6.1l4.3-6.9c3.2,2,6.7,3.9,10.1,5.5L74.7,817.7z
             M181.9,811.6l-4.3-6.9c3.2-2,6.5-4.3,9.3-6.7l5.1,6.3C188.8,806.9,185.3,809.4,181.9,811.6z M53.6,804.5
            c-3.2-2.6-6.3-5.3-9.3-8.3l5.7-5.7c2.6,2.6,5.7,5.3,8.5,7.7L53.6,804.5z M201.1,796l-5.7-5.7c2.6-2.6,5.3-5.7,7.7-8.5l6.3,5.1
            C206.8,790.1,204.2,793.1,201.1,796z M36.1,786.8c-2.6-3.2-5.1-6.7-7.3-10.1l6.9-4.3c2,3.2,4.3,6.5,6.7,9.3L36.1,786.8z
             M216.6,776.7l-6.9-4.3c2-3.2,3.9-6.7,5.7-10.1l7.3,3.5C220.8,769.4,218.8,773,216.6,776.7z M22.7,765.9
            c-1.8-3.7-3.5-7.5-4.9-11.6l7.7-2.6c1.2,3.7,2.8,7.1,4.5,10.6L22.7,765.9z M227.5,754.2l-7.7-2.6c1.2-3.7,2.4-7.3,3.2-11.2
            l7.9,1.8C230,746.3,228.7,750.3,227.5,754.2z M14.6,742.6c-1-4.1-1.6-8.1-2-12.2l8.1-0.8c0.4,3.9,1,7.7,2,11.4L14.6,742.6z
             M233,730l-8.1-0.8c0.4-3.9,0.6-7.7,0.6-11.6v-0.2l8.1-0.2v0.4C233.6,721.7,233.4,726,233,730z M19.9,717.8h-8.1v-0.2
            c0-4.1,0.2-8.1,0.6-12.2l8.1,0.8c-0.4,3.7-0.6,7.5-0.6,11.4V717.8z M224.9,705.7c-0.4-3.9-1-7.7-2-11.4l7.9-1.8
            c1,4.1,1.6,8.1,2,12.2L224.9,705.7z M22.3,694.9l-7.9-1.8c0.8-4.1,2-8.1,3.5-12l7.7,2.6C24.4,687.4,23.1,691.3,22.3,694.9z
             M219.6,683.3c-1.2-3.7-2.8-7.1-4.5-10.6l7.3-3.7c1.8,3.7,3.5,7.5,4.9,11.6L219.6,683.3z M29.8,673.2l-7.3-3.5
            c1.8-3.7,3.9-7.3,6.1-11l6.9,4.3C33.5,666.3,31.7,669.7,29.8,673.2z M209.7,662.6c-2-3.2-4.3-6.3-6.7-9.3l6.3-5.1
            c2.6,3.2,5.1,6.7,7.3,10.1L209.7,662.6z M42.2,653.7l-6.3-5.1c2.6-3.2,5.3-6.3,8.3-9.3l5.7,5.7C47.1,647.8,44.4,650.7,42.2,653.7z
             M195.2,644.6c-2.6-2.6-5.7-5.3-8.5-7.7l5.1-6.3c3.2,2.6,6.3,5.3,9.3,8.3L195.2,644.6z M58.5,637.5l-5.1-6.3
            c3.2-2.6,6.7-5.1,10.1-7.3l4.3,6.9C64.5,632.8,61.3,635,58.5,637.5z M177.2,630.4c-3.2-2-6.7-3.9-10.1-5.5l3.5-7.3
            c3.7,1.8,7.3,3.9,11,6.1L177.2,630.4z M77.7,625.1l-3.5-7.3c3.7-1.8,7.5-3.5,11.6-4.9l2.6,7.7C84.8,621.8,81.2,623.5,77.7,625.1z
             M156.3,620.4c-3.7-1.2-7.3-2.2-11.2-3.2l1.8-7.9c4.1,0.8,8.1,2,12,3.5L156.3,620.4z M99.5,617.4l-1.8-7.9c4.1-1,8.1-1.6,12.2-2
            l1,8.1C107,616,103.3,616.6,99.5,617.4z M134,615.3c-3.7-0.4-7.5-0.6-11.2-0.6h-0.4v-8.1h0.4c4.1,0,8.1,0.2,12,0.6L134,615.3z"/>
    </g>
    <path fill="#EAEAEA" d="M116.7,729c-1.2-1-1.8-2.4-2-4.1l-1.2-7.9c0-0.2,0-0.4,0-1c0-1.6,0.4-2.8,1.4-4.1c1-1,2.2-1.8,4.1-2
        c5.1-0.6,8.9-1.8,11.2-3.5c2.4-1.6,3.5-3.9,3.5-6.7v-0.2c0-2.6-1-4.7-2.8-6.1s-4.5-2.2-7.9-2.2c-4.9,0-9.3,1.6-13.6,4.9
        c-1.4,1.2-3,1.8-5.1,1.8c-3.2,0-5.5-1.4-7.1-4.1c-0.8-1.2-1-2.6-1-4.1c0-2.4,1-4.5,3-6.1c6.7-5.7,14.8-8.5,24.2-8.5
        c11.8,0,20.1,3.7,24.8,11.2c2.2,3.7,3.5,7.9,3.5,13v0.2c0,7.3-2.2,12.8-6.7,16.4c-4.1,3.5-9.3,5.9-16.2,7.1l-0.4,2
        c-0.2,1.6-1,2.8-2,4.1c-1.2,1-2.6,1.6-4.1,1.6h-0.8C119.1,730.4,117.7,730,116.7,729z M112,743c0.8-1.4,2-2.6,3.7-3.5
        c1.4-0.8,3.2-1.2,5.3-1.2c4.1,0,6.9,1.6,8.7,4.9c0.8,1.6,1.2,3.2,1.2,5.1v0.2c0,1.8-0.4,3.7-1.2,5.1c-0.8,1.6-2,2.8-3.7,3.7
        c-1.4,0.8-3.2,1.4-5.1,1.4c-4.1,0-7.1-1.6-8.9-5.1c-0.8-1.4-1.4-3.2-1.4-5.1v-0.2C110.6,746.3,111.2,744.6,112,743z"/>
</g>
<g>
    <path fill="#EAEAEA" d="M273.6,721.9c-1.2,0-2.2-0.4-3-1.2c-0.8-0.8-1.2-1.8-1.2-3s0.4-2.2,1.2-3c0.8-0.8,1.8-1.2,3-1.2h41.8
        l-17.3-17c-0.8-0.8-1.2-2-1.2-3.2c0-1.2,0.4-2.2,1.2-3.2c0.8-0.8,1.8-1.2,3-1.2c1.2,0,2.4,0.4,3.2,1.4l24.4,24.4
        c0.6,0.6,1.2,1.4,1.2,2.4v0.2c0,0.2,0,0.4,0,0.6s0,0.4,0,0.6v0.2c-0.2,1-0.6,1.8-1.2,2.4l-24.4,24.4c-0.8,0.8-2,1.4-3.2,1.4
        c-1.2,0-2.2-0.4-3-1.2s-1.2-1.8-1.2-3c0-1.2,0.4-2.2,1.2-3.2l17.3-17.3h-41.8V721.9z"/>
</g>
</svg>
