<?xml version="1.0" encoding="UTF-8" standalone="no"?>
<svg width="48px" height="48px" viewBox="0 0 48 48" version="1.1" xmlns="http://www.w3.org/2000/svg" xmlns:xlink="http://www.w3.org/1999/xlink" xmlns:sketch="http://www.bohemiancoding.com/sketch/ns">
    <!-- Generator: Sketch 3.1.1 (8761) - http://www.bohemiancoding.com/sketch -->
    <title>search</title>
    <desc>Created with Sketch.</desc>
    <defs></defs>
    <g id="Other" stroke="none" stroke-width="1" fill="none" fill-rule="evenodd" sketch:type="MSPage">
        <g id="search" sketch:type="MSArtboardGroup" fill="#FFFFFF">
            <path d="M36.7343438,37.2343748 C35.7187198,38.2109363 34.1171588,38.2109363 33.1015347,37.2343748 L28.6093515,32.7031291 C26.7734158,33.9140654 24.5859179,34.6562522 22.2031076,34.6562522 C15.6406139,34.6562522 10.2890565,29.2656324 10.2890565,22.7031386 C10.2890565,16.1406449 15.6406139,10.7890875 22.2031076,10.7890875 C28.8046638,10.7890875 34.1171588,16.1406449 34.1171588,22.7031386 C34.1171588,25.0468864 33.4140344,27.2343843 32.2421606,29.1093825 L36.7343438,33.6406282 C37.7109054,34.6171898 37.7109054,36.2187507 36.7343438,37.2343748 L36.7343438,37.2343748 Z M22.2031076,14.1875218 C17.5156121,14.1875218 13.7265532,18.0156431 13.7265532,22.7031386 C13.7265532,27.3906342 17.5156121,31.1796931 22.2031076,31.1796931 C26.8906032,31.1796931 30.7187245,27.3906342 30.7187245,22.7031386 C30.7187245,18.0156431 26.8906032,14.1875218 22.2031076,14.1875218 L22.2031076,14.1875218 Z" id="î‡" sketch:type="MSShapeGroup"></path>
        </g>
    </g>
</svg>