<?xml version="1.0" encoding="UTF-8" standalone="no"?>
<svg width="48px" height="48px" viewBox="0 0 48 48" version="1.1" xmlns="http://www.w3.org/2000/svg" xmlns:xlink="http://www.w3.org/1999/xlink" xmlns:sketch="http://www.bohemiancoding.com/sketch/ns">
    <!-- Generator: Sketch 3.1.1 (8761) - http://www.bohemiancoding.com/sketch -->
    <title>house</title>
    <desc>Created with Sketch.</desc>
    <defs></defs>
    <g id="Other" stroke="none" stroke-width="1" fill="none" fill-rule="evenodd" sketch:type="MSPage">
        <g id="house" sketch:type="MSArtboardGroup" fill="#009DDE">
            <path d="M16.3359276,10.9336177 C15.8437406,10.9336177 15.7734282,11.9179917 15.7734282,12.7265847 L15.7734282,16.347675 C15.7734282,20.0390777 19.3945185,21.9023572 23.050765,21.7968885 L23.050765,36.3164059 C21.2226417,32.7304719 15.7734282,27.2461021 10.218746,29.0742254 C10.218746,29.0742254 14.8242103,39.9726525 23.9999828,39.9726525 C33.1405991,39.9726525 37.7812197,29.0742254 37.7812197,29.0742254 C32.2968499,27.2461021 26.7773239,32.7304719 24.9140445,36.3164059 L24.9140445,21.7968885 C28.6054472,21.9023572 32.2968499,20.0390777 32.2968499,16.347675 L32.2968499,12.7265847 C32.2968499,11.9179917 32.1913813,10.9336177 31.7343505,10.9336177 C31.3827883,10.9336177 30.9257575,11.320336 30.3984142,11.8125231 L27.6913856,14.5195517 L24.9140445,11.4961171 C24.6679509,11.144555 24.4570136,10.9336177 23.9999828,10.9336177 C23.5781082,10.9336177 23.3320147,11.144555 23.050765,11.4961171 L20.3437363,14.5195517 L17.6015514,11.8125231 C17.0742082,11.320336 16.6171774,10.9336177 16.3359276,10.9336177 L16.3359276,10.9336177 Z" id="" sketch:type="MSShapeGroup"></path>
        </g>
    </g>
</svg>