<?xml version="1.0" encoding="UTF-8" standalone="no"?>
<svg width="48px" height="48px" viewBox="0 0 48 48" version="1.1" xmlns="http://www.w3.org/2000/svg" xmlns:xlink="http://www.w3.org/1999/xlink" xmlns:sketch="http://www.bohemiancoding.com/sketch/ns">
    <!-- Generator: Sketch 3.1.1 (8761) - http://www.bohemiancoding.com/sketch -->
    <title>leisure</title>
    <desc>Created with Sketch.</desc>
    <defs></defs>
    <g id="Other" stroke="none" stroke-width="1" fill="none" fill-rule="evenodd" sketch:type="MSPage">
        <g id="leisure" sketch:type="MSArtboardGroup" fill="#009DDE">
            <path d="M24.2109201,12.2695539 C16.9335833,12.2695539 10.9921827,18.1757982 10.9921827,25.4882913 C10.9921827,32.7656281 16.9335833,38.6367162 24.2109201,38.6367162 C31.5234132,38.6367162 37.3945013,32.7656281 37.3945013,25.4882913 C37.3945013,18.1757982 31.5234132,12.2695539 24.2109201,12.2695539 L24.2109201,12.2695539 Z M20.1679552,20.250015 C21.3984228,20.250015 22.4179531,21.2695453 22.4179531,22.5000129 C22.4179531,23.7304805 21.3984228,24.7851669 20.1679552,24.7851669 C18.9023314,24.7851669 17.8828012,23.7304805 17.8828012,22.5000129 C17.8828012,21.2695453 18.9023314,20.250015 20.1679552,20.250015 L20.1679552,20.250015 Z M28.2890412,24.7851669 C26.9882612,24.7851669 26.0390434,23.7304805 26.0390434,22.5000129 C26.0390434,21.2695453 26.9882612,20.250015 28.2890412,20.250015 C29.5195088,20.250015 30.5390391,21.2695453 30.5390391,22.5000129 C30.5390391,23.7304805 29.5195088,24.7851669 28.2890412,24.7851669 L28.2890412,24.7851669 Z M24.2109201,32.9765654 C19.3945185,32.9765654 18.4804568,29.1445378 18.4804568,29.1445378 L29.9765396,29.1445378 C29.9765396,29.1445378 29.0273218,32.9765654 24.2109201,32.9765654 L24.2109201,32.9765654 Z" id="" sketch:type="MSShapeGroup"></path>
        </g>
    </g>
</svg>