<?xml version="1.0" encoding="UTF-8" standalone="no"?>
<svg width="48px" height="48px" viewBox="0 0 48 48" version="1.1" xmlns="http://www.w3.org/2000/svg" xmlns:xlink="http://www.w3.org/1999/xlink" xmlns:sketch="http://www.bohemiancoding.com/sketch/ns">
    <!-- Generator: Sketch 3.1.1 (8761) - http://www.bohemiancoding.com/sketch -->
    <title>pension</title>
    <desc>Created with Sketch.</desc>
    <defs></defs>
    <g id="Other" stroke="none" stroke-width="1" fill="none" fill-rule="evenodd" sketch:type="MSPage">
        <g id="pension" sketch:type="MSArtboardGroup" fill="#009DDE">
            <path d="M18.4453006,26.3320405 C22.8749839,26.3320405 26.4960742,22.7461064 26.4960742,18.3164231 C26.4960742,13.8515836 22.8749839,10.2656495 18.4453006,10.2656495 C14.0156174,10.2656495 10.4296833,13.8515836 10.4296833,18.3164231 C10.4296833,22.7461064 14.0156174,26.3320405 18.4453006,26.3320405 L18.4453006,26.3320405 Z M17.6718639,18.6328291 L17.6718639,12.5156474 L19.2187374,12.5156474 L19.2187374,17.9648609 L22.558578,21.3047015 L21.4687352,22.4297004 L17.6718639,18.6328291 Z M20.2031115,34.5585951 L41.9999657,20.6015772 L27.7968542,13.9922085 L27.1288861,14.4140831 C27.6562293,15.6093944 27.9726353,16.9101745 27.9726353,18.3164231 C27.9726353,23.5546994 23.7187331,27.8086016 18.4453006,27.8086016 C15.5976471,27.8086016 13.0312433,26.5429778 11.3085887,24.5390734 L6,27.9492264 L20.2031115,34.5585951 Z M40.4530921,22.7812626 L20.0976428,35.4726568 L7.54687352,29.988287 L6,30.9375048 L20.0976428,37.30078 L41.9999657,23.5898556 L40.4530921,22.7812626 Z M40.4530921,25.769541 L20.1679552,38.8476535 L7.54687352,32.9765654 L6,33.9257832 L20.1679552,40.6406206 L41.9999657,26.578134 L40.4530921,25.769541 Z" id="" sketch:type="MSShapeGroup"></path>
        </g>
    </g>
</svg>