<?xml version="1.0" encoding="UTF-8" standalone="no"?>
<svg width="48px" height="48px" viewBox="0 0 48 48" version="1.1" xmlns="http://www.w3.org/2000/svg" xmlns:xlink="http://www.w3.org/1999/xlink" xmlns:sketch="http://www.bohemiancoding.com/sketch/ns">
    <!-- Generator: Sketch 3.1.1 (8761) - http://www.bohemiancoding.com/sketch -->
    <title>salary</title>
    <desc>Created with Sketch.</desc>
    <defs></defs>
    <g id="Other" stroke="none" stroke-width="1" fill="none" fill-rule="evenodd" sketch:type="MSPage">
        <g id="salary" sketch:type="MSArtboardGroup" fill="#000000">
            <path d="M20.2031115,32.3437535 L41.9999657,18.3867355 L27.7968542,11.8125231 L6,25.7343848 L20.2031115,32.3437535 Z M19.2187374,21.3047015 C19.2187374,19.8281404 21.6445163,18.3515793 24.6679509,18.3515793 C27.6913856,18.3515793 30.1171645,19.8281404 30.1171645,21.3047015 C30.1171645,22.8164188 27.6913856,24.2929799 24.6679509,24.2929799 C21.6445163,24.2929799 19.2187374,22.8164188 19.2187374,21.3047015 L19.2187374,21.3047015 Z M40.4530921,20.566421 L20.0976428,33.2929713 L7.54687352,27.7734453 L6,28.7578194 L20.0976428,35.0859384 L41.9999657,21.3750139 L40.4530921,20.566421 Z M40.4530921,23.5546994 L20.1679552,36.5976557 L7.54687352,30.7617237 L6,31.7460978 L20.1679552,38.3906227 L41.9999657,24.3984486 L40.4530921,23.5546994 Z" id="î¨" sketch:type="MSShapeGroup"></path>
        </g>
    </g>
</svg>