<?xml version="1.0" encoding="UTF-8" standalone="no"?>
<svg width="48px" height="48px" viewBox="0 0 48 48" version="1.1" xmlns="http://www.w3.org/2000/svg" xmlns:xlink="http://www.w3.org/1999/xlink" xmlns:sketch="http://www.bohemiancoding.com/sketch/ns">
    <!-- Generator: Sketch 3.1.1 (8761) - http://www.bohemiancoding.com/sketch -->
    <title>shopping</title>
    <desc>Created with Sketch.</desc>
    <defs></defs>
    <g id="Other" stroke="none" stroke-width="1" fill="none" fill-rule="evenodd" sketch:type="MSPage">
        <g id="shopping" sketch:type="MSArtboardGroup" fill="#009DDE">
            <path d="M37.2890327,16.7695496 C37.2890327,15.9609566 36.6210645,15.3281447 35.8476278,15.3281447 L16.5117087,15.3281447 L16.5117087,13.6758025 C16.5117087,13.0078344 15.9492093,12.4804912 15.3163974,12.4804912 L10.4648395,12.4804912 C9.8320276,12.4804912 9.30468435,13.0078344 9.30468435,13.6758025 L9.30468435,14.0976771 C9.30468435,14.8008015 9.8320276,15.3281447 10.4648395,15.3281447 L12.6445249,15.3281447 L15.914053,26.0156345 L15.914053,26.1562594 L17.1796768,31.3242232 C17.2851455,31.8515665 17.7421763,32.2382848 18.2695195,32.2382848 C18.339832,32.2734411 18.3749882,32.2734411 18.4453006,32.2734411 L36.3398148,32.2734411 C36.8320018,32.2734411 37.2890327,31.8515665 37.2890327,31.289067 L37.2890327,30.8320362 C37.2890327,30.3046929 36.8320018,29.8476621 36.3398148,29.8476621 L19.7812369,29.8476621 L19.6054558,28.9336005 L35.8476278,24.5390734 C36.6210645,24.5390734 37.2890327,23.8711053 37.2890327,23.0976686 L37.2890327,16.7695496 Z M19.1835812,33.7500021 C17.7070201,33.7500021 16.5117087,34.9101573 16.5117087,36.4218746 C16.5117087,37.8984357 17.7070201,39.1289033 19.1835812,39.1289033 C20.6601423,39.1289033 21.8202974,37.8984357 21.8202974,36.4218746 C21.8202974,34.9101573 20.6601423,33.7500021 19.1835812,33.7500021 L19.1835812,33.7500021 Z M33.2460678,33.7500021 C31.7695067,33.7500021 30.5390391,34.9101573 30.5390391,36.4218746 C30.5390391,37.8984357 31.7695067,39.1289033 33.2460678,39.1289033 C34.6874726,39.1289033 35.8476278,37.8984357 35.8476278,36.4218746 C35.8476278,34.9101573 34.6874726,33.7500021 33.2460678,33.7500021 L33.2460678,33.7500021 Z" id="" sketch:type="MSShapeGroup"></path>
        </g>
    </g>
</svg>