<?xml version="1.0" encoding="UTF-8" standalone="no"?>
<svg width="48px" height="48px" viewBox="0 0 48 48" version="1.1" xmlns="http://www.w3.org/2000/svg" xmlns:xlink="http://www.w3.org/1999/xlink" xmlns:sketch="http://www.bohemiancoding.com/sketch/ns">
    <!-- Generator: Sketch 3.1.1 (8761) - http://www.bohemiancoding.com/sketch -->
    <title>transport</title>
    <desc>Created with Sketch.</desc>
    <defs></defs>
    <g id="Other" stroke="none" stroke-width="1" fill="none" fill-rule="evenodd" sketch:type="MSPage">
        <g id="transport" sketch:type="MSArtboardGroup" fill="#009DDE">
            <path d="M34.3007543,14.4843955 C33.8437234,13.2539279 32.789037,12.1992414 30.855445,12.1992414 L17.7070201,12.1992414 C15.7734282,12.1992414 14.7187417,13.2539279 14.2617109,14.4843955 L11.7304633,20.9882956 C10.7460892,21.1289204 9.02343462,22.2539194 9.02343462,24.5039172 L9.02343462,32.7656281 L11.4140573,32.7656281 L11.4140573,35.4023443 C11.4140573,38.7070287 16.0195217,38.6718725 16.0195217,35.4023443 L16.0195217,32.7656281 L32.5077872,32.7656281 L32.5077872,35.4023443 C32.5077872,38.6718725 37.1484078,38.7070287 37.1484078,35.4023443 L37.1484078,32.7656281 L39.5741867,32.7656281 L39.5741867,24.5039172 C39.5741867,22.2539194 37.8163759,21.1289204 36.8320018,20.9882956 L34.3007543,14.4843955 Z M34.2304418,20.9179831 L14.3671795,20.9179831 L16.2656152,15.7851755 C16.5117087,15.0820512 16.8281147,14.554708 17.6718639,14.554708 L30.9257575,14.554708 C31.7343505,14.554708 32.0859126,15.0820512 32.3320061,15.7851755 L34.2304418,20.9179831 Z M13.8046801,27.8086016 C12.6445249,27.8086016 11.6601509,26.7890713 11.6601509,25.5937599 C11.6601509,24.3984486 12.6445249,23.3789183 13.8046801,23.4140745 C14.9648352,23.3789183 15.9492093,24.3984486 15.9492093,25.5937599 C15.9492093,26.7890713 14.9648352,27.8086016 13.8046801,27.8086016 L13.8046801,27.8086016 Z M34.7577851,27.8086016 C33.5976299,27.8086016 32.6484121,26.7890713 32.6132559,25.5937599 C32.6484121,24.3984486 33.5976299,23.3789183 34.7577851,23.4140745 C35.9179402,23.3789183 36.9374705,24.3984486 36.9374705,25.5937599 C36.9374705,26.7890713 35.9179402,27.8086016 34.7577851,27.8086016 L34.7577851,27.8086016 Z" id="" sketch:type="MSShapeGroup"></path>
        </g>
    </g>
</svg>