<?xml version="1.0" encoding="UTF-8" standalone="no"?>
<svg width="48px" height="48px" viewBox="0 0 48 48" version="1.1" xmlns="http://www.w3.org/2000/svg" xmlns:xlink="http://www.w3.org/1999/xlink" xmlns:sketch="http://www.bohemiancoding.com/sketch/ns">
    <!-- Generator: Sketch 3.1.1 (8761) - http://www.bohemiancoding.com/sketch -->
    <title>fooddrinks</title>
    <desc>Created with Sketch.</desc>
    <defs></defs>
    <g id="Other" stroke="none" stroke-width="1" fill="none" fill-rule="evenodd" sketch:type="MSPage">
        <g id="fooddrinks" sketch:type="MSArtboardGroup" fill="#FFFFFF">
            <path d="M32.2265375,10.8633052 C30.9609137,10.8633052 29.6249775,11.7773669 28.9570094,13.7109588 C28.0429477,16.347675 27.0585737,22.2539194 27.0585737,25.1015729 C27.0585737,27.070321 28.1132602,28.1250075 29.3085715,28.5468821 C28.7460721,31.4296919 28.2890412,34.4179703 28.2890412,36.5273432 C28.2890412,38.3906227 29.5898213,39.3398406 31.4882569,39.3398406 C33.3866926,39.3398406 34.6523164,38.3906227 34.6523164,36.5273432 L34.6523164,13.7109588 C34.6523164,12.0234604 33.5624737,10.8633052 32.2265375,10.8633052 L32.2265375,10.8633052 Z M23.1913899,12.621116 C23.1562336,12.1640852 22.7695153,11.7773669 22.2773282,11.7773669 C21.749985,11.7773669 21.3632666,12.2343977 21.3632666,12.7265847 L21.3632666,19.4062658 L19.4648309,19.4062658 L19.4648309,12.7265847 C19.4648309,12.1992414 19.0078001,11.7773669 18.4804568,11.7773669 C17.9179574,11.7773669 17.531239,12.1992414 17.531239,12.7265847 L17.531239,19.4062658 L15.5976471,19.4062658 L15.5976471,12.7265847 C15.5976471,12.2695539 15.2812411,11.8828355 14.7890541,11.8125231 C14.2968671,11.7773669 13.8046801,12.0937728 13.7343676,12.621116 L12.7851498,20.3554837 C12.6445249,21.5156388 13.0663995,23.7656367 16.1249903,24.8554794 C15.7031157,28.0898513 15.0351476,33.1875027 15.0351476,36.3515622 C15.0351476,37.8984357 16.5820212,39.3398406 18.4804568,39.3398406 C20.3788925,39.3398406 21.9257661,37.8984357 21.9257661,36.3515622 C21.9257661,33.1875027 21.2577979,28.0898513 20.8359234,24.8554794 C23.7187331,23.8359491 24.3163888,21.6914199 24.1757639,20.3203275 L23.1913899,12.621116 Z" id="" sketch:type="MSShapeGroup"></path>
        </g>
    </g>
</svg>