<?xml version="1.0" encoding="UTF-8" standalone="no"?>
<svg width="48px" height="48px" viewBox="0 0 48 48" version="1.1" xmlns="http://www.w3.org/2000/svg" xmlns:xlink="http://www.w3.org/1999/xlink" xmlns:sketch="http://www.bohemiancoding.com/sketch/ns">
    <!-- Generator: Sketch 3.1.1 (8761) - http://www.bohemiancoding.com/sketch -->
    <title>income</title>
    <desc>Created with Sketch.</desc>
    <defs></defs>
    <g id="Other" stroke="none" stroke-width="1" fill="none" fill-rule="evenodd" sketch:type="MSPage">
        <g id="income" sketch:type="MSArtboardGroup" fill="#FFFFFF">
            <path d="M31.9452878,19.6523593 L23.9999828,27.2812583 L16.0898341,19.6523593 L21.1171731,19.6523593 L21.1171731,11.636742 L26.8827926,11.636742 L26.8827926,19.6523593 L31.9452878,19.6523593 Z M30.1874769,30.0234432 L35.6015343,30.0234432 L30.4335704,25.9453221 L33.3866926,25.9453221 L38.2734067,29.3203189 C38.9765311,29.7421935 39.4335619,30.7617237 39.2226246,31.5703167 L38.3788754,36.4218746 C38.1679381,37.2304676 37.2890327,37.8632795 36.4804397,37.8632795 L11.5546822,37.8632795 C10.710933,37.8632795 9.86718381,37.2304676 9.65624651,36.4218746 L8.81249732,31.5703167 C8.60156002,30.7617237 9.05859083,29.7421935 9.76171516,29.3203189 L14.613273,25.9453221 L17.6015514,25.9453221 L12.3984314,30.0234432 L17.847645,30.0234432 L30.1874769,30.0234432 Z" id="" sketch:type="MSShapeGroup"></path>
        </g>
    </g>
</svg>