<?xml version="1.0" encoding="UTF-8" standalone="no"?>
<svg width="48px" height="48px" viewBox="0 0 48 48" version="1.1" xmlns="http://www.w3.org/2000/svg" xmlns:xlink="http://www.w3.org/1999/xlink" xmlns:sketch="http://www.bohemiancoding.com/sketch/ns">
    <!-- Generator: Sketch 3.1.1 (8761) - http://www.bohemiancoding.com/sketch -->
    <title>otherincome</title>
    <desc>Created with Sketch.</desc>
    <defs></defs>
    <g id="Other" stroke="none" stroke-width="1" fill="none" fill-rule="evenodd" sketch:type="MSPage">
        <g id="otherincome" sketch:type="MSArtboardGroup" fill="#FFFFFF">
            <path d="M23.9999828,13.5703339 C18.7968628,13.5703339 14.5781168,15.1523636 14.5781168,17.1211118 L14.5781168,18.8437664 C14.5781168,20.8828269 18.7968628,22.5703253 23.9999828,22.5703253 C29.1679467,22.5703253 33.4218488,20.8828269 33.4218488,18.8437664 L33.4218488,17.1211118 C33.4218488,15.1523636 29.1679467,13.5703339 23.9999828,13.5703339 L23.9999828,13.5703339 Z M33.0702867,22.359388 C31.9452878,24.0117302 28.3241975,25.1718853 23.9999828,25.1718853 C19.6757682,25.1718853 16.0546779,24.0117302 14.929679,22.359388 C14.6484293,22.0429821 14.5781168,22.2187631 14.5781168,22.359388 L14.5781168,25.5586037 C14.5781168,27.9140702 18.7968628,29.8476621 23.9999828,29.8476621 C29.1679467,29.8476621 33.4218488,27.9140702 33.4218488,25.5586037 L33.4218488,22.359388 C33.4218488,22.2187631 33.281224,22.0429821 33.0702867,22.359388 L33.0702867,22.359388 Z M33.0351305,29.2851627 C31.9101315,31.0781297 28.2890412,32.4492221 23.9999828,32.4492221 C19.7109244,32.4492221 16.0546779,31.0781297 14.929679,29.2851627 C14.6484293,28.8632881 14.5781168,29.0742254 14.5781168,29.2851627 L14.5781168,31.9570351 C14.5781168,34.5937513 18.7968628,37.3359362 23.9999828,37.3359362 C29.1679467,37.3359362 33.4218488,34.5937513 33.4218488,31.9570351 L33.4218488,29.2851627 C33.4218488,29.0742254 33.281224,28.8632881 33.0351305,29.2851627 L33.0351305,29.2851627 Z" id="î–" sketch:type="MSShapeGroup"></path>
        </g>
    </g>
</svg>