<?xml version="1.0" encoding="UTF-8" standalone="no"?>
<svg width="48px" height="48px" viewBox="0 0 48 48" version="1.1" xmlns="http://www.w3.org/2000/svg" xmlns:xlink="http://www.w3.org/1999/xlink" xmlns:sketch="http://www.bohemiancoding.com/sketch/ns">
    <!-- Generator: Sketch 3.1.1 (8761) - http://www.bohemiancoding.com/sketch -->
    <title>refund</title>
    <desc>Created with Sketch.</desc>
    <defs></defs>
    <g id="Other" stroke="none" stroke-width="1" fill="none" fill-rule="evenodd" sketch:type="MSPage">
        <g id="refund" sketch:type="MSArtboardGroup" fill="#FFFFFF">
            <path d="M25.4413877,11.144555 C17.6718639,11.144555 11.3437449,17.3320491 11.1679638,25.0312605 L6.87890541,25.0312605 L13.2773368,32.2031286 L19.7460806,25.0312605 L14.7187417,25.0312605 C14.929679,19.3359534 19.640612,14.6953328 25.4413877,14.6953328 C31.3476321,14.6953328 36.1640337,19.5117345 36.1640337,25.4531351 C36.1640337,31.3593794 31.3476321,36.2109373 25.4413877,36.2109373 C23.0859212,36.2109373 20.9062358,35.3671881 19.0781125,34.0664081 L16.6523336,36.7734368 C19.0429563,38.6367162 22.1015471,39.7617152 25.4413877,39.7617152 C33.3163802,39.7617152 39.7148116,33.3281275 39.7148116,25.4531351 C39.7148116,17.5078301 33.3163802,11.144555 25.4413877,11.144555 L25.4413877,11.144555 Z" id="" sketch:type="MSShapeGroup"></path>
        </g>
    </g>
</svg>