<?xml version="1.0" encoding="UTF-8" standalone="no"?>
<svg width="48px" height="48px" viewBox="0 0 48 48" version="1.1" xmlns="http://www.w3.org/2000/svg" xmlns:xlink="http://www.w3.org/1999/xlink" xmlns:sketch="http://www.bohemiancoding.com/sketch/ns">
    <!-- Generator: Sketch 3.1.1 (8761) - http://www.bohemiancoding.com/sketch -->
    <title>savings</title>
    <desc>Created with Sketch.</desc>
    <defs></defs>
    <g id="Other" stroke="none" stroke-width="1" fill="none" fill-rule="evenodd" sketch:type="MSPage">
        <g id="savings" sketch:type="MSArtboardGroup" fill="#FFFFFF">
            <path d="M35.2148159,20.7773583 C34.9687224,20.1093902 34.582004,19.441422 34.1952856,18.8086101 L34.1952856,11.0039301 L29.0976342,14.554708 C27.3749796,13.746115 25.4062315,13.2890842 23.3320147,13.2890842 C17.2499893,13.2890842 12.1523379,17.1914242 10.9570265,22.3242318 C9.76171516,22.359388 8.7773411,23.3437621 8.7773411,24.6093859 C8.7773411,25.8046972 9.76171516,26.7890713 10.9570265,26.8242275 C11.519526,29.1445378 12.8906184,31.2539108 14.7538979,32.8359405 L14.0859298,37.792967 L19.4296747,37.792967 L19.5351433,35.3320319 C20.7304547,35.6835941 22.0312347,35.8593751 23.3320147,35.8593751 C24.6679509,35.8593751 25.9335747,35.6835941 27.1288861,35.3320319 L27.2343547,37.792967 L32.5780997,37.792967 L31.9101315,32.8359405 C33.3866926,31.5703167 34.5116916,30.0937556 35.2148159,28.371101 L37.8866883,28.371101 C38.5898127,28.371101 39.2226246,27.7734453 39.2226246,27.1054772 L39.2226246,22.1132945 C39.2226246,21.3750139 38.5898127,20.7773583 37.8866883,20.7773583 L35.2148159,20.7773583 Z M28.0781039,17.9297047 C27.8671666,18.4218918 27.4101358,18.7382977 26.8476364,18.7382977 C26.7070115,18.7382977 26.6015429,18.7031415 26.4257618,18.7031415 C24.4570136,17.9297047 22.2070158,17.9297047 20.2382677,18.7031415 C19.6054558,18.9140788 18.8671752,18.5625166 18.6210817,17.9297047 C18.339832,17.1914242 18.6913941,16.4531436 19.3945185,16.2422063 C21.8554536,15.3281447 24.8085758,15.3281447 27.3398234,16.2422063 C27.9726353,16.4531436 28.3241975,17.1914242 28.0781039,17.9297047 L28.0781039,17.9297047 Z" id="" sketch:type="MSShapeGroup"></path>
        </g>
    </g>
</svg>