<?xml version="1.0" encoding="UTF-8" standalone="no"?>
<svg width="48px" height="48px" viewBox="0 0 48 48" version="1.1" xmlns="http://www.w3.org/2000/svg" xmlns:xlink="http://www.w3.org/1999/xlink" xmlns:sketch="http://www.bohemiancoding.com/sketch/ns">
    <!-- Generator: Sketch 3.1.1 (8761) - http://www.bohemiancoding.com/sketch -->
    <title>unknown</title>
    <desc>Created with Sketch.</desc>
    <defs></defs>
    <g id="Other" stroke="none" stroke-width="1" fill="none" fill-rule="evenodd" sketch:type="MSPage">
        <g id="unknown" sketch:type="MSArtboardGroup" fill="#FFFFFF">
            <path d="M24.2109201,29.0390691 C25.1952942,29.0390691 25.8632623,28.2656324 26.0038872,27.4218832 L26.1093558,26.8242275 C29.7656023,26.1211032 32.6484121,24.3632923 32.6484121,20.1093902 L32.6484121,20.0390777 C32.6484121,15.6445507 29.4140402,13.1484593 24.5976385,13.1484593 C21.6445163,13.1484593 19.4296747,14.0976771 17.6718639,15.5742382 C17.1093644,16.031269 16.7929585,16.7343934 16.7929585,17.3320491 C16.7929585,18.6328291 17.847645,19.6875156 19.148425,19.6875156 C19.7109244,19.6875156 20.2734239,19.4765783 20.6249861,19.1601723 C21.8202974,18.2461107 23.050765,17.7890799 24.4921699,17.7890799 C26.460918,17.7890799 27.5507607,18.7031415 27.5507607,20.1797026 L27.5507607,20.250015 C27.5507607,21.9023572 26.2499807,22.7812626 23.3320147,23.1328248 C22.2773282,23.2734496 21.6445163,24.0468864 21.7851412,25.1367291 L22.1367034,27.4218832 C22.2773282,28.3007886 22.9804526,29.0390691 23.9648266,29.0390691 L24.2109201,29.0390691 Z M21.0468607,34.1367205 C21.0468607,35.7539065 22.2773282,37.0546865 23.9648266,37.0546865 C25.6171688,37.0546865 26.8476364,35.7539065 26.8476364,34.1367205 L26.8476364,34.0664081 C26.8476364,32.4843784 25.6171688,31.2539108 23.9648266,31.2539108 C22.2773282,31.2539108 21.0468607,32.4843784 21.0468607,34.0664081 L21.0468607,34.1367205 Z" id="" sketch:type="MSShapeGroup"></path>
        </g>
    </g>
</svg>