<?xml version="1.0" encoding="UTF-8" standalone="no"?>
<svg width="38px" height="41px" viewBox="0 0 38 41" version="1.1" xmlns="http://www.w3.org/2000/svg" xmlns:xlink="http://www.w3.org/1999/xlink" xmlns:sketch="http://www.bohemiancoding.com/sketch/ns">
    <!-- Generator: Sketch 3.1.1 (8761) - http://www.bohemiancoding.com/sketch -->
    <title>other income</title>
    <desc>Created with Sketch.</desc>
    <defs></defs>
    <g id="Page-1" stroke="none" stroke-width="1" fill="none" fill-rule="evenodd" sketch:type="MSPage">
        <g id="Month-summary" sketch:type="MSArtboardGroup" transform="translate(-78.000000, -1134.000000)" fill="#FCB827">
            <g id="summary-medium-4" sketch:type="MSLayerGroup" transform="translate(10.000000, 1007.000000)">
                <g id="Item" transform="translate(36.000000, 108.000000)" sketch:type="MSShapeGroup">
                    <g id="3-+-other-income" transform="translate(33.000000, 0.000000)">
                        <path d="M28.9862938,31.5136943 L28.9862938,24.2383106 C28.9862938,21.6504224 26.8378584,19.5508151 24.2011421,19.5508151 L4.71873882,19.5508151 C2.03319451,19.5508151 -0.115240941,21.6504224 -0.115240941,24.2383106 L-0.115240941,48.3593813 C-0.115240941,50.9472695 2.03319451,53.0957049 4.71873882,53.0957049 L10.2363117,53.0957049 L10.2363117,55.2929685 C10.2363117,57.5390601 12.0429506,59.1992147 14.0937299,59.1992147 L32.208947,59.1992147 C34.4062105,59.1992147 36.1640213,57.5390601 36.1640213,55.2929685 L36.1640213,35.3222844 C36.1640213,33.1738489 34.4062105,31.5136943 32.208947,31.5136943 L28.9862938,31.5136943 Z M4.03514573,29.1211184 C3.74217726,29.1211184 3.49803686,28.876978 3.49803686,28.6328376 L3.49803686,27.9980726 C3.49803686,27.7051042 3.74217726,27.4609638 4.03514573,27.4609638 L24.2987983,27.4609638 C24.5917667,27.4609638 24.8359071,27.7051042 24.8359071,27.9980726 L24.8359071,28.6328376 C24.8359071,28.876978 24.5917667,29.1211184 24.2987983,29.1211184 L4.03514573,29.1211184 Z M10.1386555,33.3691613 L10.1386555,34.9804878 L4.18162996,34.9804878 C3.79100533,34.9804878 3.49803686,34.7363474 3.49803686,34.2968947 L3.49803686,33.9062701 C3.49803686,33.6133016 3.79100533,33.3691613 4.18162996,33.3691613 L10.1386555,33.3691613 Z M33.3319928,55.1464842 C33.3319928,55.9277335 32.7460558,56.4648424 32.0624627,56.4648424 L14.2890422,56.4648424 C13.6054491,56.4648424 13.0683402,55.9277335 13.0683402,55.1464842 L13.0683402,35.5175967 C13.0683402,34.8340036 13.6054491,34.1992386 14.2890422,34.1992386 L32.0624627,34.1992386 C32.7460558,34.1992386 33.3319928,34.8340036 33.3319928,35.5175967 L33.3319928,55.1464842 Z M16.4374776,35.9570494 C15.9491969,35.9570494 15.5585722,36.298846 15.5585722,36.7382987 L15.5585722,40.4004045 C15.5585722,40.8398573 15.9491969,41.2304819 16.4374776,41.2304819 L30.4511362,41.2304819 C30.8905889,41.2304819 31.2323854,40.8398573 31.2323854,40.4004045 L31.2323854,36.7382987 C31.2323854,36.298846 30.8905889,35.9570494 30.4511362,35.9570494 L16.4374776,35.9570494 Z M10.1386555,39.1797026 L10.1386555,40.8398573 L4.18162996,40.8398573 C3.79100533,40.8398573 3.49803686,40.4980607 3.49803686,40.2050922 L3.49803686,39.8144676 C3.49803686,39.423843 3.79100533,39.1797026 4.18162996,39.1797026 L10.1386555,39.1797026 Z M16.4374776,43.183605 C15.9491969,43.183605 15.5585722,43.5254016 15.5585722,44.0136824 L15.5585722,44.7949316 C15.5585722,45.2832124 15.9491969,45.673837 16.4374776,45.673837 L18.7812254,45.673837 C19.2695062,45.673837 19.6113027,45.2832124 19.6113027,44.7949316 L19.6113027,44.0136824 C19.6113027,43.5254016 19.2695062,43.183605 18.7812254,43.183605 L16.4374776,43.183605 Z M22.248019,43.183605 C21.7597382,43.183605 21.3691136,43.5254016 21.3691136,44.0136824 L21.3691136,44.7949316 C21.3691136,45.2832124 21.7597382,45.673837 22.248019,45.673837 L24.5917667,45.673837 C24.9823914,45.673837 25.4706722,45.2832124 25.4706722,44.7949316 L25.4706722,44.0136824 C25.4706722,43.5254016 24.9823914,43.183605 24.5917667,43.183605 L22.248019,43.183605 Z M28.0097322,43.183605 C27.5214515,43.183605 27.1796549,43.5254016 27.1796549,44.0136824 L27.1796549,44.7949316 C27.1796549,45.2832124 27.5214515,45.673837 28.0097322,45.673837 L30.35348,45.673837 C30.8417608,45.673837 31.1835573,45.2832124 31.1835573,44.7949316 L31.1835573,44.0136824 C31.1835573,43.5254016 30.8417608,43.183605 30.35348,43.183605 L28.0097322,43.183605 Z M10.1386555,44.9414158 L10.1386555,46.6992267 L4.18162996,46.6992267 C3.79100533,46.6992267 3.49803686,46.4062582 3.49803686,46.0156336 L3.49803686,45.673837 C3.49803686,45.3320405 3.79100533,44.9414158 4.18162996,44.9414158 L10.1386555,44.9414158 Z M16.4374776,47.4316478 C15.9491969,47.4316478 15.5585722,47.8222725 15.5585722,48.3105533 L15.5585722,49.0918025 C15.5585722,49.5312552 15.9491969,49.9218798 16.4374776,49.9218798 L18.7812254,49.9218798 C19.2695062,49.9218798 19.6113027,49.5312552 19.6113027,49.0918025 L19.6113027,48.3105533 C19.6113027,47.8222725 19.2695062,47.4316478 18.7812254,47.4316478 L16.4374776,47.4316478 Z M22.248019,47.4316478 C21.7597382,47.4316478 21.3691136,47.8222725 21.3691136,48.3105533 L21.3691136,49.0918025 C21.3691136,49.5312552 21.7597382,49.9218798 22.248019,49.9218798 L24.5917667,49.9218798 C24.9823914,49.9218798 25.4706722,49.5312552 25.4706722,49.0918025 L25.4706722,48.3105533 C25.4706722,47.8222725 24.9823914,47.4316478 24.5917667,47.4316478 L22.248019,47.4316478 Z M28.0097322,47.4316478 C27.5214515,47.4316478 27.1796549,47.8222725 27.1796549,48.3105533 L27.1796549,49.0918025 C27.1796549,49.5312552 27.5214515,49.9218798 28.0097322,49.9218798 L30.35348,49.9218798 C30.8417608,49.9218798 31.1835573,49.5312552 31.1835573,49.0918025 L31.1835573,48.3105533 C31.1835573,47.8222725 30.8417608,47.4316478 30.35348,47.4316478 L28.0097322,47.4316478 Z M16.4374776,51.7773468 C15.9491969,51.7773468 15.5585722,52.1191434 15.5585722,52.5585961 L15.5585722,53.3886734 C15.5585722,53.8281261 15.9491969,54.1699227 16.4374776,54.1699227 L18.7812254,54.1699227 C19.2695062,54.1699227 19.6113027,53.8281261 19.6113027,53.3886734 L19.6113027,52.5585961 C19.6113027,52.1191434 19.2695062,51.7773468 18.7812254,51.7773468 L16.4374776,51.7773468 Z M22.248019,51.7773468 C21.7597382,51.7773468 21.3691136,52.1191434 21.3691136,52.5585961 L21.3691136,53.3886734 C21.3691136,53.8281261 21.7597382,54.1699227 22.248019,54.1699227 L24.5917667,54.1699227 C24.9823914,54.1699227 25.4706722,53.8281261 25.4706722,53.3886734 L25.4706722,52.5585961 C25.4706722,52.1191434 24.9823914,51.7773468 24.5917667,51.7773468 L22.248019,51.7773468 Z M28.0097322,51.7773468 C27.5214515,51.7773468 27.1796549,52.1191434 27.1796549,52.5585961 L27.1796549,53.3886734 C27.1796549,53.8281261 27.5214515,54.1699227 28.0097322,54.1699227 L30.35348,54.1699227 C30.8417608,54.1699227 31.1835573,53.8281261 31.1835573,53.3886734 L31.1835573,52.5585961 C31.1835573,52.1191434 30.8417608,51.7773468 30.35348,51.7773468 L28.0097322,51.7773468 Z" id="other-income"></path>
                    </g>
                </g>
            </g>
        </g>
    </g>
</svg>