<?xml version="1.0" encoding="UTF-8" standalone="no"?>
<svg width="44px" height="40px" viewBox="0 0 44 40" version="1.1" xmlns="http://www.w3.org/2000/svg" xmlns:xlink="http://www.w3.org/1999/xlink" xmlns:sketch="http://www.bohemiancoding.com/sketch/ns">
    <!-- Generator: Sketch 3.1.1 (8761) - http://www.bohemiancoding.com/sketch -->
    <title>other income 3</title>
    <desc>Created with Sketch.</desc>
    <defs></defs>
    <g id="Page-1" stroke="none" stroke-width="1" fill="none" fill-rule="evenodd" sketch:type="MSPage">
        <g id="Month-summary" sketch:type="MSArtboardGroup" transform="translate(-484.000000, -1134.000000)" fill="#E03945">
            <g id="summary-medium-4" sketch:type="MSLayerGroup" transform="translate(10.000000, 1007.000000)">
                <g id="Item-3" transform="translate(472.000000, 108.000000)" sketch:type="MSShapeGroup">
                    <g id="-5-+-other-income-3" transform="translate(3.000000, 0.000000)">
                        <path d="M22.3915764,20.7226889 C22.147436,20.1855801 21.6103272,19.8926116 21.0732183,19.8926116 C20.5361094,19.8926116 19.9501725,20.1855801 19.7060321,20.7226889 L-0.215823898,55.8789054 C-0.508792369,56.3671862 -0.508792369,56.9531231 -0.215823898,57.4414039 C0.0771445725,57.8808566 0.614253435,58.1738251 1.1513623,58.1738251 L40.9462462,58.1738251 C41.5321832,58.1738251 42.0204639,57.8808566 42.3134324,57.4414039 C42.6064009,56.9531231 42.6064009,56.3671862 42.3134324,55.8789054 L22.3915764,20.7226889 Z M22.3427483,44.7461035 C22.2939203,45.5273528 21.7568114,45.9668055 21.0732183,45.9668055 C20.3896252,45.9668055 19.9013444,45.5273528 19.8036883,44.7461035 L18.5829863,34.3457228 C18.4853301,33.4668174 18.9736109,32.8808805 19.7060321,32.8808805 L22.4404045,32.8808805 C23.1728257,32.8808805 23.6122784,33.4668174 23.5146222,34.3457228 L22.3427483,44.7461035 Z M23.4657941,50.2636764 C23.4657941,51.5332064 22.4892326,52.6074242 21.0732183,52.6074242 C19.657204,52.6074242 18.6806425,51.5332064 18.6806425,50.2636764 L18.6806425,50.1660202 C18.6806425,48.8476621 19.657204,47.8222725 21.0732183,47.8222725 C22.4892326,47.8222725 23.4657941,48.8476621 23.4657941,50.1660202 L23.4657941,50.2636764 Z" id="other-income-3"></path>
                    </g>
                </g>
            </g>
        </g>
    </g>
</svg>