<?xml version="1.0" encoding="UTF-8" standalone="no"?>
<svg width="42px" height="29px" viewBox="0 0 42 29" version="1.1" xmlns="http://www.w3.org/2000/svg" xmlns:xlink="http://www.w3.org/1999/xlink" xmlns:sketch="http://www.bohemiancoding.com/sketch/ns">
    <!-- Generator: Sketch 3.1.1 (8761) - http://www.bohemiancoding.com/sketch -->
    <title>other income 2</title>
    <desc>Created with Sketch.</desc>
    <defs></defs>
    <g id="Page-1" stroke="none" stroke-width="1" fill="none" fill-rule="evenodd" sketch:type="MSPage">
        <g id="Month-summary" sketch:type="MSArtboardGroup" transform="translate(-280.000000, -1318.000000)" fill="#FCB827">
            <g id="summary-medium-4" sketch:type="MSLayerGroup" transform="translate(10.000000, 1007.000000)">
                <g id="Item-3" transform="translate(266.000000, 286.000000)" sketch:type="MSShapeGroup">
                    <g id="1-+-other-income-2" transform="translate(4.000000, 0.000000)">
                        <path d="M41.9472218,39.2773587 L41.9472218,39.2285307 L41.9472218,39.1797026 L41.9472218,39.1308745 L41.9472218,39.0820464 C41.8983937,38.6914218 41.7030814,38.3496253 41.5077691,38.0566568 C40.189411,36.1523617 38.5780844,34.4922071 37.0155859,32.9785366 C33.5487923,29.7070554 29.5448899,26.972683 25.1503628,25.8008091 C22.6601308,25.2148722 20.0722427,25.1660441 17.5331826,25.7031529 C15.2382629,26.1914337 12.9921713,27.2168234 10.8925639,28.4863534 C7.62108267,30.4883046 4.64256988,33.222677 2.05468173,36.298846 C1.56640094,36.8359548 1.07812016,37.4218918 0.68749553,38.0566568 C0.05273051,38.8867341 0.05273051,39.8144676 0.68749553,40.693373 C1.95702557,42.54884 3.56835216,44.2578227 5.17967875,45.7714932 C8.64647231,49.0429744 12.6015467,51.7773468 16.9960737,52.9003926 C19.5351338,53.5351576 22.0741939,53.5839857 24.662082,53.0468769 C26.9081736,52.509768 29.1542653,51.4843784 31.2538726,50.2148483 C34.574182,48.2128971 37.5038667,45.5273528 40.1405829,42.4511838 L41.5077691,40.693373 C41.7519095,40.4004045 41.8983937,40.058608 41.9472218,39.6191553 C41.9472218,39.6191553 41.9472218,39.6191553 41.9472218,39.5703272 C41.9472218,39.5703272 41.9472218,39.5703272 41.9472218,39.5214991 L41.9472218,39.3261868 L41.9472218,39.2773587 Z M21.0976323,48.9453183 C15.8730279,48.9453183 11.6249851,44.6484474 11.6249851,39.3261868 C11.6249851,34.1015824 15.8730279,29.8047115 21.0976323,29.8047115 C26.3222367,29.8047115 30.5702795,34.1015824 30.5702795,39.3261868 C30.5702795,44.6484474 26.3222367,48.9453183 21.0976323,48.9453183 L21.0976323,48.9453183 Z M21.0976323,36.2011898 C19.3398215,36.2011898 17.9726353,37.6172041 17.9726353,39.3261868 C17.9726353,41.0839976 19.3398215,42.54884 21.0976323,42.54884 C22.8066151,42.54884 24.2226293,41.0839976 24.2226293,39.3261868 C24.2226293,37.6172041 22.8066151,36.2011898 21.0976323,36.2011898 L21.0976323,36.2011898 Z" id="other-income-2"></path>
                    </g>
                </g>
            </g>
        </g>
    </g>
</svg>