<?xml version="1.0" encoding="UTF-8" standalone="no"?>
<svg width="44px" height="37px" viewBox="0 0 44 37" version="1.1" xmlns="http://www.w3.org/2000/svg" xmlns:xlink="http://www.w3.org/1999/xlink" xmlns:sketch="http://www.bohemiancoding.com/sketch/ns">
    <!-- Generator: Sketch 3.1.1 (8761) - http://www.bohemiancoding.com/sketch -->
    <title>other income 2</title>
    <desc>Created with Sketch.</desc>
    <defs></defs>
    <g id="Page-1" stroke="none" stroke-width="1" fill="none" fill-rule="evenodd" sketch:type="MSPage">
        <g id="Month-summary" sketch:type="MSArtboardGroup" transform="translate(-280.000000, -1136.000000)" fill="#009DDE">
            <g id="summary-medium-4" sketch:type="MSLayerGroup" transform="translate(10.000000, 1007.000000)">
                <g id="Item-2" transform="translate(239.000000, 108.000000)" sketch:type="MSShapeGroup">
                    <g id="1-+-other-income-2" transform="translate(32.000000, 0.000000)">
                        <path d="M32.0351219,31.6113504 L20.9999762,21.1621416 L10.0136585,31.6113504 L16.9960737,31.6113504 L16.9960737,42.54884 L25.0527067,42.54884 L25.0527067,31.6113504 L32.0351219,31.6113504 Z M12.4550624,46.894539 L4.93553835,46.894539 L12.1132659,41.27931 L7.96287922,41.27931 L1.22460439,45.8691493 C0.248042824,46.4550863 -0.386722196,47.8711005 -0.0937537253,48.9941464 L1.07812016,55.634765 C1.37108863,56.7089827 2.54296251,57.5878882 3.71483639,57.5878882 L38.333944,57.5878882 C39.5058179,57.5878882 40.6776918,56.7089827 40.9706602,55.634765 L42.1425341,48.9941464 C42.4355026,47.8711005 41.8007376,46.4550863 40.824176,45.8691493 L34.0859012,41.27931 L29.9355145,41.27931 L37.113242,46.894539 L29.593718,46.894539 L12.4550624,46.894539 Z" id="other-income-2"></path>
                    </g>
                </g>
            </g>
        </g>
    </g>
</svg>