<?xml version="1.0" encoding="UTF-8" standalone="no"?>
<svg width="44px" height="38px" viewBox="0 0 44 38" version="1.1" xmlns="http://www.w3.org/2000/svg" xmlns:xlink="http://www.w3.org/1999/xlink" xmlns:sketch="http://www.bohemiancoding.com/sketch/ns">
    <!-- Generator: Sketch 3.1.1 (8761) - http://www.bohemiancoding.com/sketch -->
    <title>other income</title>
    <desc>Created with Sketch.</desc>
    <defs></defs>
    <g id="Page-1" stroke="none" stroke-width="1" fill="none" fill-rule="evenodd" sketch:type="MSPage">
        <g id="Month-summary" sketch:type="MSArtboardGroup" transform="translate(-80.000000, -1313.000000)" fill="#61BC45">
            <g id="summary-medium-4" sketch:type="MSLayerGroup" transform="translate(10.000000, 1007.000000)">
                <g id="Item-2" transform="translate(33.000000, 286.000000)" sketch:type="MSShapeGroup">
                    <g id="3-+-other-income" transform="translate(38.000000, 0.000000)">
                        <path d="M36.5761332,33.857442 C36.2343366,32.9297085 35.6972278,32.0019751 35.1601189,31.1230696 L35.1601189,20.2832362 L28.0800475,25.2148722 C25.6874717,24.0918264 22.9530993,23.4570613 20.0722427,23.4570613 C11.6249851,23.4570613 4.54491373,28.876978 2.88475906,36.0058775 C1.22460439,36.0547056 -0.142581804,37.4218918 -0.142581804,39.1797026 C-0.142581804,40.8398573 1.22460439,42.2070435 2.88475906,42.2558715 C3.66600831,45.4785247 5.57030337,48.4082094 8.15819153,50.6054729 L7.23045804,57.490232 L14.652326,57.490232 L14.7988102,54.0722665 C16.4589649,54.5605473 18.2656038,54.8046877 20.0722427,54.8046877 C21.9277096,54.8046877 23.6855205,54.5605473 25.3456751,54.0722665 L25.4921594,57.490232 L32.9140273,57.490232 L31.9862938,50.6054729 C34.0370731,48.8476621 35.5995716,46.7968828 36.5761332,44.404307 L40.2870671,44.404307 C41.2636287,44.404307 42.1425341,43.5742296 42.1425341,42.6464962 L42.1425341,35.712909 C42.1425341,34.6875194 41.2636287,33.857442 40.2870671,33.857442 L36.5761332,33.857442 Z M26.6640333,29.9023677 C26.3710648,30.5859608 25.7362998,31.0254135 24.9550505,31.0254135 C24.7597382,31.0254135 24.613254,30.9765854 24.3691136,30.9765854 C21.6347412,29.9023677 18.5097442,29.9023677 15.7753718,30.9765854 C14.8964664,31.2695539 13.8710767,30.7812731 13.5292802,29.9023677 C13.1386555,28.876978 13.6269363,27.8515884 14.6034979,27.5586199 C18.0214634,26.2890899 22.123022,26.2890899 25.6386436,27.5586199 C26.517549,27.8515884 27.0058298,28.876978 26.6640333,29.9023677 L26.6640333,29.9023677 Z" id="other-income"></path>
                    </g>
                </g>
            </g>
        </g>
    </g>
</svg>